<svg xmlns="http://www.w3.org/2000/svg" viewBox="0 0 1447.68 500"><defs><style>.cls-1{fill:#fff;}.cls-2{fill:#242828;}.cls-3{fill:#00e8b5;}</style></defs><title>Asset 64</title><g id="Layer_2" data-name="Layer 2"><g id="Layer_1-2" data-name="Layer 1"><circle class="cls-1" cx="250" cy="250" r="250"/><polygon class="cls-2" points="152.65 202.02 264.66 202.02 121.67 345 188.32 345 235.34 297.98 378.33 155 152.65 155 152.65 202.02"/><polygon class="cls-3" points="121.67 345 342.65 345 342.65 297.98 168.69 297.98 121.67 345"/><path class="cls-1" d="M711.68,348V203.46H656.43V171.71h149.5v31.75H750.68V348Z"/><path class="cls-1" d="M828.18,342.09a55.3,55.3,0,0,1-22.75-22.25q-8-14.37-8-33.88t8-33.87A54.54,54.54,0,0,1,828.18,230q14.76-7.74,34.25-7.75T896.68,230a54.43,54.43,0,0,1,22.75,22.13q8,14.37,8,33.87t-8,33.88a55.19,55.19,0,0,1-22.75,22.25Q881.94,350,862.43,350T828.18,342.09ZM889.93,286q0-17.74-7.12-26.5t-20.38-8.75q-27.49,0-27.5,35.25t27.5,35.25Q889.94,321.21,889.93,286Z"/><path class="cls-1" d="M1132.93,235q10.24,12.75,10.25,39v74h-37.75V275.21q0-12.49-3.87-18t-13.13-5.5q-10.76,0-16.75,7.5t-6,21V348h-37.75V275.21q0-12.49-3.87-18t-13.13-5.5q-10.75,0-16.75,7.5t-6,21V348H950.43V225.21h36.75v16.5a38.42,38.42,0,0,1,15.38-14.5,47.32,47.32,0,0,1,22.12-5q27.25,0,36.5,22.75a43.91,43.91,0,0,1,16.75-16.62,47.17,47.17,0,0,1,23.75-6.13Q1122.68,222.21,1132.93,235Z"/><path class="cls-1" d="M1196.43,342.09a55.24,55.24,0,0,1-22.75-22.25q-8-14.37-8-33.88t8-33.87A54.49,54.49,0,0,1,1196.43,230q14.74-7.74,34.25-7.75t34.25,7.75a54.49,54.49,0,0,1,22.75,22.13q8,14.37,8,33.87t-8,33.88a55.24,55.24,0,0,1-22.75,22.25q-14.75,7.88-34.25,7.87T1196.43,342.09ZM1258.18,286q0-17.74-7.12-26.5t-20.38-8.75q-27.5,0-27.5,35.25t27.5,35.25Q1258.18,321.21,1258.18,286Z"/><path class="cls-1" d="M1359.93,317.21h87.75V348h-131v-28.5l84.5-117h-84.5V171.71h128.5v28Z"/></g></g></svg>